<svg width="31" height="42" viewBox="0 0 31 42" fill="none" xmlns="http://www.w3.org/2000/svg">
<path d="M28.946 1.04078C29.0847 2.48553 29.5577 3.77356 29.6933 5.18483C29.8424 6.73746 30.3473 8.71727 29.8667 10.2233C29.6497 10.9031 29.8048 11.6505 29.5435 12.3146C29.2106 13.161 28.6873 14.3412 28.5729 15.2406C28.4381 16.3002 27.5583 18.3365 26.7514 19.1067C26.1951 19.6377 26.1661 20.4209 25.5294 20.9314C24.9864 21.3668 24.0089 22.5499 23.6978 23.1771C23.5165 23.5427 22.4492 24.8451 22.0826 25.049C21.2898 25.49 20.6476 26.3897 19.9482 26.9709C16.841 29.5526 12.9843 31.2653 9.62488 33.542C8.17117 34.5272 6.5099 35.2314 5.07377 36.1633C4.51517 36.5258 3.80433 36.6306 3.22828 36.951C2.61385 37.2928 1.68238 37.2337 1.10959 37.6218C0.981097 37.7089 0.38247 37.9301 0.267012 37.9412C0.169524 37.9506 0.461818 37.4536 0.481748 37.3483C0.618725 36.6248 0.953853 35.5653 0.926545 34.8066C0.89909 34.0438 1.1482 33.2119 1.21463 32.4517C1.29897 31.4862 1.16296 30.3351 1.49686 29.4296C1.62622 29.0788 1.70351 28.5807 1.69015 28.2093C1.67624 27.8228 1.80977 28.6217 1.71704 28.8934C1.31359 30.0757 1.52969 31.6805 1.45501 32.9341C1.35984 34.5318 1.3936 36.504 0.708722 37.9942C0.345814 38.7838 1.00939 38.9191 1.75128 38.8478C2.74017 38.7529 3.74073 39.4118 4.68834 39.4242C6.13042 39.443 7.65717 40.7567 9.03767 41.0667" stroke="white" stroke-opacity="0.4" stroke-width="0.5025" stroke-linecap="round"/>
</svg>
